<svg width="117" height="71" viewBox="0 0 117 71" fill="none" xmlns="http://www.w3.org/2000/svg">
<path opacity="0.5" d="M29.544 70.152C24.04 70.152 19.112 68.808 14.76 66.12C10.408 63.368 6.984 59.4 4.488 54.216C1.992 49.032 0.744 42.76 0.744 35.4C0.744 28.04 1.992 21.768 4.488 16.584C6.984 11.4 10.408 7.464 14.76 4.776C19.112 2.024 24.04 0.647999 29.544 0.647999C35.112 0.647999 40.04 2.024 44.328 4.776C48.68 7.464 52.104 11.4 54.6 16.584C57.096 21.768 58.344 28.04 58.344 35.4C58.344 42.76 57.096 49.032 54.6 54.216C52.104 59.4 48.68 63.368 44.328 66.12C40.04 68.808 35.112 70.152 29.544 70.152ZM29.544 57C32.168 57 34.44 56.264 36.36 54.792C38.344 53.32 39.88 50.984 40.968 47.784C42.12 44.584 42.696 40.456 42.696 35.4C42.696 30.344 42.12 26.216 40.968 23.016C39.88 19.816 38.344 17.48 36.36 16.008C34.44 14.536 32.168 13.8 29.544 13.8C26.984 13.8 24.712 14.536 22.728 16.008C20.808 17.48 19.272 19.816 18.12 23.016C17.032 26.216 16.488 30.344 16.488 35.4C16.488 40.456 17.032 44.584 18.12 47.784C19.272 50.984 20.808 53.32 22.728 54.792C24.712 56.264 26.984 57 29.544 57ZM88.7483 70.152C84.0763 70.152 79.4363 69.544 74.8282 68.328C70.2843 67.048 66.3803 65.256 63.1163 62.952L69.2603 51.048C71.8203 52.904 74.7643 54.376 78.0923 55.464C81.4843 56.552 84.9083 57.096 88.3643 57.096C92.2683 57.096 95.3403 56.328 97.5803 54.792C99.8203 53.256 100.94 51.112 100.94 48.36C100.94 46.632 100.492 45.096 99.5963 43.752C98.7003 42.408 97.1003 41.384 94.7963 40.68C92.5563 39.976 89.3883 39.624 85.2923 39.624H68.1083L71.5643 1.8H112.556V14.28H77.1323L85.1963 7.17599L82.7963 34.152L74.7323 27.048H88.9403C95.5963 27.048 100.94 27.976 104.972 29.832C109.068 31.624 112.044 34.088 113.9 37.224C115.756 40.36 116.684 43.912 116.684 47.88C116.684 51.848 115.692 55.528 113.708 58.92C111.724 62.248 108.652 64.968 104.492 67.08C100.396 69.128 95.1483 70.152 88.7483 70.152Z" fill="#A4894B" fill-opacity="0.6"/>
</svg>
