<svg width="115" height="71" viewBox="0 0 115 71" fill="none" xmlns="http://www.w3.org/2000/svg">
<path opacity="0.5" d="M29.544 70.152C24.04 70.152 19.112 68.808 14.76 66.12C10.408 63.368 6.984 59.4 4.488 54.216C1.992 49.032 0.744 42.76 0.744 35.4C0.744 28.04 1.992 21.768 4.488 16.584C6.984 11.4 10.408 7.464 14.76 4.776C19.112 2.024 24.04 0.647999 29.544 0.647999C35.112 0.647999 40.04 2.024 44.328 4.776C48.68 7.464 52.104 11.4 54.6 16.584C57.096 21.768 58.344 28.04 58.344 35.4C58.344 42.76 57.096 49.032 54.6 54.216C52.104 59.4 48.68 63.368 44.328 66.12C40.04 68.808 35.112 70.152 29.544 70.152ZM29.544 57C32.168 57 34.44 56.264 36.36 54.792C38.344 53.32 39.88 50.984 40.968 47.784C42.12 44.584 42.696 40.456 42.696 35.4C42.696 30.344 42.12 26.216 40.968 23.016C39.88 19.816 38.344 17.48 36.36 16.008C34.44 14.536 32.168 13.8 29.544 13.8C26.984 13.8 24.712 14.536 22.728 16.008C20.808 17.48 19.272 19.816 18.12 23.016C17.032 26.216 16.488 30.344 16.488 35.4C16.488 40.456 17.032 44.584 18.12 47.784C19.272 50.984 20.808 53.32 22.728 54.792C24.712 56.264 26.984 57 29.544 57ZM86.7548 70.152C82.0828 70.152 77.4428 69.544 72.8348 68.328C68.2268 67.048 64.3228 65.256 61.1227 62.952L67.1708 51.048C69.7308 52.904 72.7068 54.376 76.0988 55.464C79.4908 56.552 82.9148 57.096 86.3708 57.096C90.2748 57.096 93.3468 56.328 95.5868 54.792C97.8268 53.256 98.9468 51.144 98.9468 48.456C98.9468 45.896 97.9548 43.88 95.9708 42.408C93.9868 40.936 90.7868 40.2 86.3708 40.2H79.2668V29.928L97.9868 8.712L99.7148 14.28H64.4828V1.8H111.523V11.88L92.8988 33.096L85.0268 28.584H89.5388C97.7948 28.584 104.035 30.44 108.259 34.152C112.483 37.864 114.595 42.632 114.595 48.456C114.595 52.232 113.603 55.784 111.619 59.112C109.635 62.376 106.595 65.032 102.499 67.08C98.4028 69.128 93.1548 70.152 86.7548 70.152Z" fill="#A4894B" fill-opacity="0.6"/>
</svg>
