<svg width="122" height="71" viewBox="0 0 122 71" fill="none" xmlns="http://www.w3.org/2000/svg">
<path opacity="0.5" d="M29.544 70.152C24.04 70.152 19.112 68.808 14.76 66.12C10.408 63.368 6.984 59.4 4.488 54.216C1.992 49.032 0.744 42.76 0.744 35.4C0.744 28.04 1.992 21.768 4.488 16.584C6.984 11.4 10.408 7.464 14.76 4.776C19.112 2.024 24.04 0.647999 29.544 0.647999C35.112 0.647999 40.04 2.024 44.328 4.776C48.68 7.464 52.104 11.4 54.6 16.584C57.096 21.768 58.344 28.04 58.344 35.4C58.344 42.76 57.096 49.032 54.6 54.216C52.104 59.4 48.68 63.368 44.328 66.12C40.04 68.808 35.112 70.152 29.544 70.152ZM29.544 57C32.168 57 34.44 56.264 36.36 54.792C38.344 53.32 39.88 50.984 40.968 47.784C42.12 44.584 42.696 40.456 42.696 35.4C42.696 30.344 42.12 26.216 40.968 23.016C39.88 19.816 38.344 17.48 36.36 16.008C34.44 14.536 32.168 13.8 29.544 13.8C26.984 13.8 24.712 14.536 22.728 16.008C20.808 17.48 19.272 19.816 18.12 23.016C17.032 26.216 16.488 30.344 16.488 35.4C16.488 40.456 17.032 44.584 18.12 47.784C19.272 50.984 20.808 53.32 22.728 54.792C24.712 56.264 26.984 57 29.544 57ZM95.9483 70.152C89.8043 70.152 84.4603 68.872 79.9163 66.312C75.4363 63.752 71.9803 60.008 69.5483 55.08C67.1163 50.152 65.9003 44.072 65.9003 36.84C65.9003 29.096 67.3403 22.536 70.2203 17.16C73.1643 11.784 77.1963 7.688 82.3163 4.872C87.5003 2.056 93.4523 0.647999 100.172 0.647999C103.756 0.647999 107.18 1.032 110.444 1.8C113.708 2.568 116.524 3.72 118.892 5.256L113.132 16.68C111.276 15.4 109.292 14.536 107.18 14.088C105.068 13.576 102.86 13.32 100.556 13.32C94.7323 13.32 90.1243 15.08 86.7323 18.6C83.3403 22.12 81.6443 27.336 81.6443 34.248C81.6443 35.4 81.6443 36.68 81.6443 38.088C81.7083 39.496 81.9003 40.904 82.2203 42.312L77.9003 38.28C79.1163 35.784 80.6843 33.704 82.6043 32.04C84.5243 30.312 86.7963 29.032 89.4203 28.2C92.1083 27.304 95.0523 26.856 98.2523 26.856C102.604 26.856 106.508 27.72 109.964 29.448C113.42 31.176 116.172 33.608 118.22 36.744C120.332 39.88 121.388 43.56 121.388 47.784C121.388 52.328 120.236 56.296 117.932 59.688C115.692 63.016 112.652 65.608 108.812 67.464C105.036 69.256 100.748 70.152 95.9483 70.152ZM95.0843 58.536C97.2603 58.536 99.1803 58.152 100.844 57.384C102.572 56.552 103.916 55.368 104.876 53.832C105.836 52.296 106.316 50.536 106.316 48.552C106.316 45.48 105.26 43.048 103.148 41.256C101.1 39.4 98.3483 38.472 94.8923 38.472C92.5883 38.472 90.5723 38.92 88.8443 39.816C87.1163 40.648 85.7403 41.832 84.7163 43.368C83.7563 44.84 83.2763 46.568 83.2763 48.552C83.2763 50.472 83.7563 52.2 84.7163 53.736C85.6763 55.208 87.0203 56.392 88.7483 57.288C90.4763 58.12 92.5883 58.536 95.0843 58.536Z" fill="#A4894B" fill-opacity="0.6"/>
</svg>
