<svg width="116" height="71" viewBox="0 0 116 71" fill="none" xmlns="http://www.w3.org/2000/svg">
<path opacity="0.5" d="M29.544 70.152C24.04 70.152 19.112 68.808 14.76 66.12C10.408 63.368 6.984 59.4 4.488 54.216C1.992 49.032 0.744 42.76 0.744 35.4C0.744 28.04 1.992 21.768 4.488 16.584C6.984 11.4 10.408 7.464 14.76 4.776C19.112 2.024 24.04 0.647999 29.544 0.647999C35.112 0.647999 40.04 2.024 44.328 4.776C48.68 7.464 52.104 11.4 54.6 16.584C57.096 21.768 58.344 28.04 58.344 35.4C58.344 42.76 57.096 49.032 54.6 54.216C52.104 59.4 48.68 63.368 44.328 66.12C40.04 68.808 35.112 70.152 29.544 70.152ZM29.544 57C32.168 57 34.44 56.264 36.36 54.792C38.344 53.32 39.88 50.984 40.968 47.784C42.12 44.584 42.696 40.456 42.696 35.4C42.696 30.344 42.12 26.216 40.968 23.016C39.88 19.816 38.344 17.48 36.36 16.008C34.44 14.536 32.168 13.8 29.544 13.8C26.984 13.8 24.712 14.536 22.728 16.008C20.808 17.48 19.272 19.816 18.12 23.016C17.032 26.216 16.488 30.344 16.488 35.4C16.488 40.456 17.032 44.584 18.12 47.784C19.272 50.984 20.808 53.32 22.728 54.792C24.712 56.264 26.984 57 29.544 57ZM64.9492 69V58.92L90.8693 34.44C92.9173 32.584 94.4213 30.92 95.3813 29.448C96.3413 27.976 96.9813 26.632 97.3013 25.416C97.6853 24.2 97.8773 23.08 97.8773 22.056C97.8773 19.368 96.9493 17.32 95.0933 15.912C93.3013 14.44 90.6453 13.704 87.1252 13.704C84.3093 13.704 81.6853 14.248 79.2533 15.336C76.8853 16.424 74.8693 18.12 73.2053 20.424L61.8773 13.128C64.4373 9.288 68.0213 6.248 72.6293 4.008C77.2373 1.768 82.5493 0.647999 88.5653 0.647999C93.5573 0.647999 97.9093 1.48 101.621 3.144C105.397 4.744 108.309 7.016 110.357 9.96C112.469 12.904 113.525 16.424 113.525 20.52C113.525 22.696 113.237 24.872 112.661 27.048C112.149 29.16 111.061 31.4 109.397 33.768C107.797 36.136 105.429 38.792 102.293 41.736L80.7893 61.992L77.8133 56.328H115.733V69H64.9492Z" fill="#A4894B" fill-opacity="0.6"/>
</svg>
